<svg xmlns="http://www.w3.org/2000/svg" xmlns:xlink="http://www.w3.org/1999/xlink" viewBox="0 0 209.1 240.81"><defs><style>.cls-1{fill:url(#Degradado_sin_nombre_560);}.cls-2{fill:url(#Degradado_sin_nombre_560-2);}.cls-3{fill:url(#Degradado_sin_nombre_560-3);}.cls-4{fill:url(#Degradado_sin_nombre_560-4);}.cls-5{fill:url(#Degradado_sin_nombre_560-5);}.cls-6{fill:url(#Degradado_sin_nombre_560-6);}.cls-7{fill:url(#Degradado_sin_nombre_560-7);}.cls-8{fill:#a52b31;}.cls-9{fill:#cb2228;}.cls-10{fill:#fff;}</style><linearGradient id="Degradado_sin_nombre_560" x1="128.29" y1="104.39" x2="208.58" y2="104.39" gradientUnits="userSpaceOnUse"><stop offset="0" stop-color="#7b1b59"/><stop offset="0.31" stop-color="#952556" stop-opacity="0.99"/><stop offset="0.95" stop-color="#d73e50" stop-opacity="0.97"/><stop offset="1" stop-color="#dc404f" stop-opacity="0.97"/></linearGradient><linearGradient id="Degradado_sin_nombre_560-2" x1="112.65" y1="119.42" x2="191.09" y2="119.42" xlink:href="#Degradado_sin_nombre_560"/><linearGradient id="Degradado_sin_nombre_560-3" x1="112.65" y1="50.92" x2="146.79" y2="50.92" xlink:href="#Degradado_sin_nombre_560"/><linearGradient id="Degradado_sin_nombre_560-4" x1="0" y1="160.74" x2="163.79" y2="160.74" xlink:href="#Degradado_sin_nombre_560"/><linearGradient id="Degradado_sin_nombre_560-5" x1="0" y1="136.52" x2="146.1" y2="136.52" xlink:href="#Degradado_sin_nombre_560"/><linearGradient id="Degradado_sin_nombre_560-6" x1="33.87" y1="120.71" x2="56.49" y2="74.02" xlink:href="#Degradado_sin_nombre_560"/><linearGradient id="Degradado_sin_nombre_560-7" x1="60.17" y1="116.4" x2="80.37" y2="74.68" xlink:href="#Degradado_sin_nombre_560"/></defs><title>logo</title><g id="Capa_2" data-name="Capa 2"><g id="Capa_1-2" data-name="Capa 1"><polygon class="cls-1" points="191.09 173.83 208.58 142.25 146.79 34.95 128.29 66.99 191.09 173.83"/><polygon class="cls-2" points="191.09 173.83 177.94 173.76 112.65 65.01 128.29 66.99 191.09 173.83"/><polygon class="cls-3" points="112.65 65.14 131.29 34.86 146.79 34.95 128.29 66.99 112.65 65.14"/><polygon class="cls-4" points="0 144.53 15.36 176.6 163.79 176.96 146.1 144.62 0 144.53"/><polygon class="cls-5" points="0 144.53 8.21 128.42 134.62 128.76 146.1 144.62 0 144.53"/><polygon class="cls-6" points="51.2 108.28 16.81 108.28 79.51 0.01 115.24 0.36 51.2 108.28"/><polygon class="cls-7" points="51.11 108.28 69.04 103.02 124.4 10.62 115.24 0.36 51.11 108.28"/><polygon class="cls-8" points="191.62 173.6 209.1 142.02 147.32 34.72 128.81 66.76 191.62 173.6"/><polygon class="cls-9" points="191.62 173.6 178.47 173.53 113.17 64.79 128.81 66.76 191.62 173.6"/><polygon class="cls-8" points="113.17 64.91 131.81 34.64 147.32 34.72 128.81 66.76 113.17 64.91"/><polygon class="cls-9" points="0.52 144.35 15.88 176.41 164.31 176.77 146.62 144.44 0.52 144.35"/><polygon class="cls-8" points="0.52 144.35 8.74 128.24 135.14 128.57 146.62 144.44 0.52 144.35"/><polygon class="cls-9" points="51.72 108.28 17.33 108.28 80.03 0 115.76 0.36 51.72 108.28"/><polygon class="cls-8" points="51.63 108.28 69.56 103.01 124.92 10.61 115.76 0.36 51.63 108.28"/><path class="cls-10" d="M8.77,217.7H0v-2.29H20.19v2.29H11.41v22.68H8.77Z"/><path class="cls-10" d="M41.43,240.38l-5.7-8a18,18,0,0,1-2,.11H27v7.92H24.39v-25h9.34c6.35,0,10.2,3.21,10.2,8.56a7.74,7.74,0,0,1-5.71,7.85l6.1,8.56ZM41.29,224c0-4-2.64-6.27-7.63-6.27H27v12.51h6.63C38.65,230.21,41.29,227.9,41.29,224Z"/><path class="cls-10" d="M50,229.71v-14.3h2.64v14.2c0,5.92,2.78,8.63,7.63,8.63s7.67-2.71,7.67-8.63v-14.2h2.57v14.3c0,7.17-3.85,10.88-10.24,10.88S50,236.88,50,229.71Z"/><path class="cls-10" d="M96.06,238.1v2.28H78.4v-25H95.52v2.29H81v8.88H94v2.24H81v9.28Z"/><path class="cls-9" d="M124.05,233.57c0,4.31-3.43,6.81-10,6.81H101.15v-25h12.2c6.24,0,9.45,2.61,9.45,6.49a6,6,0,0,1-3.32,5.5A6.17,6.17,0,0,1,124.05,233.57Zm-17.16-13.81v5.89h5.74c2.82,0,4.35-1,4.35-3s-1.53-2.93-4.35-2.93ZM118.23,233c0-2.1-1.6-3.1-4.6-3.1h-6.74V236h6.74C116.63,236,118.23,235.1,118.23,233Z"/><path class="cls-9" d="M126.86,227.9c0-7.42,5.77-12.91,13.66-12.91s13.65,5.45,13.65,12.91-5.81,12.91-13.65,12.91S126.86,235.31,126.86,227.9Zm21.47,0a7.82,7.82,0,1,0-7.81,8A7.62,7.62,0,0,0,148.33,227.9Z"/><path class="cls-9" d="M158.52,215.41h11.34c8.16,0,13.76,4.92,13.76,12.49s-5.6,12.48-13.76,12.48H158.52Zm11,20.22c5,0,8.21-3,8.21-7.73s-3.25-7.74-8.21-7.74h-5.28v15.47Z"/><path class="cls-9" d="M198.88,231.53v8.85H193.1v-8.92l-9.66-16.05h6.13l6.67,11.09,6.67-11.09h5.67Z"/></g></g></svg>